<?xml version="1.0" encoding="UTF-8"?>
<!DOCTYPE svg PUBLIC "-//W3C//DTD SVG 1.1//EN" "http://www.w3.org/Graphics/SVG/1.1/DTD/svg11.dtd">
<!-- Creator: CorelDRAW 2020 (64 Bit) -->
<svg xmlns="http://www.w3.org/2000/svg" xml:space="preserve" width="200mm" height="72mm" version="1.1" style="shape-rendering:geometricPrecision; text-rendering:geometricPrecision; image-rendering:optimizeQuality; fill-rule:evenodd; clip-rule:evenodd"
viewBox="0 0 20000 7200"
 xmlns:xlink="http://www.w3.org/1999/xlink"
 xmlns:xodm="http://www.corel.com/coreldraw/odm/2003">
 <defs>
  <style type="text/css">
   <![CDATA[
    .fil1 {fill:white}
    .fil0 {fill:white;fill-rule:nonzero}
   ]]>
  </style>
 </defs>
 <g id="Camada_x0020_1">
  <metadata id="CorelCorpID_0Corel-Layer"/>
  <g id="_2325459630464">
   <path class="fil0" d="M8250.69 6056.12l-339.41 0c-1.87,-9.94 -2.8,-30.46 -2.8,-61.53 -1.86,-49.12 13.68,-98.54 46.62,-148.26 20.51,-31.71 56.26,-72.43 107.23,-122.15 43.51,-42.27 71.48,-72.11 83.93,-89.52 24.24,-33.56 36.35,-67.75 36.35,-102.57 0,-28.59 -10.87,-52.52 -32.64,-71.79 -21.75,-19.27 -46.61,-28.91 -74.58,-28.91 -1.25,0 -1.87,0 -1.87,0 -31.71,0 -60.3,9.34 -85.78,27.98 -8.7,6.84 -18.96,15.85 -30.77,27.04 -12.44,-11.81 -25.79,-24.25 -40.1,-37.3 40.41,-52.22 93.87,-78.32 160.38,-78.32 46,0 86.41,16.17 121.22,48.49 34.8,32.32 52.22,70.23 52.22,113.75 0,47.86 -17.72,95.11 -53.16,141.73 -14.3,19.27 -51.27,57.81 -110.95,115.62 -75.22,73.35 -112.83,141.72 -112.83,205.13l276.94 0 0 60.61zm913.3 -338.46c0,87.01 -1.87,146.38 -5.6,178.09 -5.59,49.1 -26.27,89.67 -62,121.68 -35.74,32.01 -77.86,48.01 -126.35,48.01 -48.48,0 -90.59,-16 -126.34,-48.01 -35.74,-32.01 -56.42,-72.58 -62,-121.68 -3.74,-31.71 -5.61,-91.08 -5.61,-178.09 0,-86.41 1.87,-145.47 5.61,-177.17 5.58,-49.11 26.26,-89.67 62,-121.68 35.75,-32.02 77.86,-48.02 126.34,-48.02 48.49,0 90.61,16 126.35,48.02 35.73,32.01 56.41,72.57 62,121.68 3.73,31.7 5.6,90.76 5.6,177.17zm-67.14 0c0,-80.82 -2.17,-139.56 -6.52,-176.24 -3.73,-31.08 -17.1,-57.19 -40.1,-78.32 -23,-21.14 -49.72,-31.71 -80.19,-31.71 -30.46,0 -57.18,10.57 -80.18,31.71 -23.01,21.13 -36.37,47.24 -40.1,78.32 -4.35,36.68 -6.53,95.42 -6.53,176.24 0,81.42 2.18,140.48 6.53,177.15 3.73,31.08 17.09,57.19 40.1,78.33 23,21.13 49.72,31.7 80.18,31.7 30.47,0 57.19,-10.57 80.19,-31.7 23,-21.14 36.37,-47.25 40.1,-78.33 4.35,-36.67 6.52,-95.73 6.52,-177.15zm934.76 338.46l-339.4 0c-1.88,-9.94 -2.81,-30.46 -2.81,-61.53 -1.86,-49.12 13.68,-98.54 46.62,-148.26 20.52,-31.71 56.27,-72.43 107.23,-122.15 43.51,-42.27 71.48,-72.11 83.93,-89.52 24.24,-33.56 36.35,-67.75 36.35,-102.57 0,-28.59 -10.87,-52.52 -32.63,-71.79 -21.75,-19.27 -46.62,-28.91 -74.59,-28.91 -1.25,0 -1.87,0 -1.87,0 -31.7,0 -60.3,9.34 -85.78,27.98 -8.7,6.84 -18.95,15.85 -30.76,27.04 -12.45,-11.81 -25.8,-24.25 -40.1,-37.3 40.4,-52.22 93.87,-78.32 160.37,-78.32 46.01,0 86.41,16.17 121.22,48.49 34.8,32.32 52.22,70.23 52.22,113.75 0,47.86 -17.72,95.11 -53.15,141.73 -14.31,19.27 -51.28,57.81 -110.96,115.62 -75.21,73.35 -112.82,141.72 -112.82,205.13l276.93 0 0 60.61zm676.46 0l-67.14 0 0 -615.39 -93.23 0 0 -60.62 160.37 0 0 676.01zm1113.78 0l-317.97 0 0 -676.01 308.64 0 0 60.62 -241.5 0 0 236.83 222.86 0 0 60.61 -222.86 0 0 257.34 250.83 0 0 60.61zm886.26 -338.46c0,75.83 -1.86,129.29 -5.59,160.37 -6.23,50.98 -25.03,91.85 -56.42,122.61 -31.4,30.77 -72.57,48.64 -123.55,53.62 -41.02,3.72 -100.39,4.35 -178.09,1.86 -3.73,0 -9.01,-0.31 -15.86,-0.93l0 -674.14c2.5,-0.63 7.78,-0.94 15.86,-0.94 77.7,-2.49 137.07,-1.87 178.09,1.86 50.98,4.99 92.15,22.85 123.55,53.62 31.39,30.77 50.19,71.64 56.42,122.61 3.73,31.09 5.59,84.24 5.59,159.46zm-67.14 0c0,-69.63 -2.18,-122.78 -6.53,-159.46 -8.08,-65.88 -45.07,-104.12 -110.95,-114.68 -26.73,-4.35 -69.31,-4.97 -127.75,-1.87l0 552.94c58.44,3.09 101.02,2.48 127.75,-1.87 39.78,-6.21 68.38,-21.76 85.78,-46.63 14.92,-20.51 24.24,-51.59 27.97,-93.24 2.49,-35.43 3.73,-80.5 3.73,-135.19zm641.04 338.46l-67.14 0 0 -676.01 67.14 0 0 676.01zm889.08 -86.71c-33.58,59.05 -86.1,91.06 -157.58,96.03l0 24.24c15.53,2.49 28.89,10.26 40.08,23.32 11.2,13.05 17.1,27.66 17.72,43.82 0,7.46 0.32,13.37 0.94,17.72 0,4.35 -0.32,10.25 -0.94,17.71 -0.62,20.51 -8.08,37.14 -22.38,49.89 -14.29,12.75 -31.39,19.11 -51.28,19.11 -6.84,0 -10.26,0 -10.26,0 -27.97,-3.72 -46.31,-16.78 -55.01,-39.15l-1.87 -4.67 30.77 -20.51c6.84,8.08 11.51,13.37 13.99,15.84 5.6,4.99 11.5,7.78 17.71,8.4 3.11,0 4.67,0 4.67,0 18.03,0 28.29,-10.25 30.77,-30.77 0.62,-2.49 0.93,-7.77 0.93,-15.85 0,-8.08 -0.31,-13.37 -0.93,-15.85 -2.48,-20.51 -12.74,-30.77 -30.77,-30.77l-27.04 0 0 -63.4c-48.48,-6.22 -89.82,-26.58 -124.01,-61.08 -34.19,-34.5 -53.77,-76.31 -58.74,-125.41 0,-0.62 -0.62,-8.08 -1.88,-22.38 -2.47,-29.83 -3.71,-75.52 -3.71,-137.07 0,-75.22 1.85,-128.36 5.59,-159.44 6.22,-54.71 29.21,-99.77 68.99,-135.21 39.78,-35.43 86.73,-53.14 140.8,-53.14 65.9,0 118.41,25.79 157.58,77.38l-42.9 37.31 -11.17 -11.19c-27.98,-27.98 -62.49,-41.96 -103.51,-41.96 -36.67,0 -68.38,12.11 -95.11,36.37 -26.72,24.24 -42.26,54.69 -46.61,91.38 -3.73,31.07 -5.6,83.91 -5.6,158.5 0,74.6 1.87,127.43 5.6,158.51 4.35,36.68 19.89,67.14 46.61,91.38 26.73,24.25 58.44,36.37 95.11,36.37 46.62,0 83.92,-16.79 111.89,-50.35 1.87,-1.86 6.52,-7.46 13.99,-16.78l47.56 31.7zm794.87 -739.41c-13.05,41.64 -39.15,64.02 -78.31,67.13 -14.92,0 -32.64,-5.6 -53.15,-16.79 -20.51,-11.18 -34.82,-16.78 -42.9,-16.78 -6.21,0 -11.81,1.24 -16.78,3.73 -12.43,4.97 -21.44,13.98 -27.03,27.03l-35.44 -18.64c13.05,-41.65 39.17,-64.02 78.32,-67.13 13.06,0 30.46,5.74 52.23,17.25 21.75,11.49 36.35,17.25 43.81,17.25 6.22,-0.62 11.81,-1.88 16.78,-3.73 12.43,-5.59 21.45,-14.93 27.05,-27.98l35.42 18.66zm107.24 813.99l-66.2 19.59 -59.68 -206.06 -216.33 0 -59.67 206.06 -66.2 -19.59 204.2 -663.88 59.68 0 204.2 663.88zm-143.59 -247.08l-75.54 -263.88c-9.94,-34.18 -14.6,-56.25 -13.98,-66.2l-1.86 0c0.62,9.95 -3.73,32.02 -13.05,66.2l-76.47 263.88 180.9 0zm1023.32 -79.25c0,72.1 -1.86,124.94 -5.59,158.5 -6.84,54.7 -29.84,99.93 -69.01,135.68 -39.16,35.73 -85.77,53.6 -139.86,53.6 -54.07,0 -100.7,-17.87 -139.86,-53.6 -39.17,-35.75 -61.85,-80.98 -68.06,-135.68 -4.36,-33.56 -6.54,-86.4 -6.54,-158.5 0,-71.49 2.18,-124.34 6.54,-158.52 6.21,-54.71 28.89,-99.77 68.06,-135.21 39.16,-35.43 85.79,-53.14 139.86,-53.14 54.09,0 100.7,17.71 139.86,53.14 39.17,35.44 62.17,80.5 69.01,135.21 3.73,34.18 5.59,87.03 5.59,158.52zm-67.13 0c0,-71.49 -2.18,-124.34 -6.53,-158.52 -4.35,-36.67 -19.74,-66.98 -46.16,-90.91 -26.41,-23.94 -57.97,-35.9 -94.64,-35.9 -36.67,0 -68.22,11.96 -94.64,35.9 -26.42,23.93 -41.81,54.24 -46.16,90.91 -3.73,34.18 -5.59,87.03 -5.59,158.52 0,72.1 1.86,124.94 5.59,158.5 4.35,37.3 19.74,67.92 46.16,91.85 26.42,23.93 57.97,35.9 94.64,35.9 36.67,0 68.23,-11.97 94.64,-35.9 26.42,-23.93 41.81,-54.55 46.16,-91.85 4.35,-33.56 6.53,-86.4 6.53,-158.5zm1248.04 310.49l-130.55 39.16 -40.08 -135.21 -180.9 0 -40.09 135.21 -130.54 -39.16 206.06 -648.04 110.03 0 206.07 648.04zm-205.14 -212.59l-45.69 -154.78c-6.21,-21.15 -9.32,-43.22 -9.32,-66.21l-1.86 0c0,22.99 -3.11,45.06 -9.34,66.21l-45.69 154.78 111.9 0zm1031.51 152.91c-31.08,55.33 -80.18,87.03 -147.32,95.11 31.7,12.43 48.18,34.18 49.42,65.27 0.62,11.81 0.94,21.76 0.94,29.84 0,8.08 -0.32,17.4 -0.94,27.97 -0.62,24.25 -11.81,43.2 -33.57,56.88 -18.64,11.8 -41.33,17.71 -68.06,17.71 -15.55,0 -31.09,-4.35 -46.63,-13.05 -15.54,-8.7 -26.1,-18.96 -31.7,-30.77l-7.46 -16.78 57.81 -29.84 1.86 1.87c11.81,14.29 22.39,21.45 31.71,21.45 9.95,0 14.92,-12.13 14.92,-36.37 0,-23.63 -5.29,-35.44 -15.85,-35.44l-45.69 0 0 -65.26c-44.76,-12.43 -81.9,-35.59 -111.43,-69.47 -29.53,-33.87 -47.4,-74.13 -53.61,-120.75 -3.73,-28.59 -5.6,-78.33 -5.6,-149.18 0,-70.25 1.87,-119.67 5.6,-148.26 7.45,-57.82 32.48,-105.37 75.05,-142.66 42.58,-37.31 94.96,-55.95 157.12,-55.95 65.27,0 117.79,25.79 157.58,77.38l-81.11 70.87c-24.26,-20.51 -49.74,-30.77 -76.47,-30.77 -26.72,0 -48.79,8.08 -66.2,24.25 -17.4,16.16 -27.98,37.6 -31.71,64.34 -3.73,28.59 -5.59,75.52 -5.59,140.8 0,65.88 1.86,112.66 5.59,140.33 3.73,27.65 14.31,49.57 31.71,65.73 17.41,16.16 39.48,24.24 66.2,24.24 38.54,0 65.89,-12.13 82.06,-36.37l1.85 -2.79 89.52 59.67zm918.68 59.68l-130.54 39.16 -40.09 -135.21 -180.89 0 -40.09 135.21 -130.54 -39.16 206.06 -648.04 110.03 0 206.06 648.04zm-205.14 -212.59l-45.69 -154.78c-6.2,-21.15 -9.32,-43.22 -9.32,-66.21l-1.85 0c0,22.99 -3.12,45.06 -9.34,66.21l-45.69 154.78 111.89 0zm807.74 -548.27c-11.81,16.78 -45.69,47.55 -101.63,92.31l-60.61 -44.76c12.43,-32.95 31.08,-74.59 55.94,-124.94 11.19,-15.55 27.04,-23.31 47.56,-23.31 14.91,0 28.59,4.65 41.03,13.99 18.64,13.67 27.97,31.38 27.97,53.15 0,12.43 -3.43,23.62 -10.26,33.56zm-34.5 788.83l-134.27 0 0 -676.01 134.27 0 0 676.01z"/>
   <path class="fil0" d="M8420.8 2947.37l-221.25 1223.53 443.07 0 -221.82 -1223.53zm-251.87 1392.78l-91.28 507.78 -170.99 0 428.06 -2369.63 172.73 0 428.06 2369.63 -171 0 -91.28 -507.78 -504.3 0zm1200.2 -1525.06l0 2032.84 -169.26 0 0 -2369.63 169.26 0 338.52 580.56 338.51 -580.56 169.25 0 0 2369.63 -169.25 0 0 -2032.84 -338.51 580.57 -338.52 -580.57zm1624.8 132.28l-221.25 1223.53 443.07 0 -221.82 -1223.53zm-251.87 1392.78l-91.28 507.78 -170.99 0 428.06 -2369.63 172.73 0 428.06 2369.63 -171 0 -91.28 -507.78 -504.3 0zm1724.73 -1692.6l-693.79 0 0 -169.25 934.09 0 -781.58 2200.36 693.78 0 0 169.27 -934.1 0 781.6 -2200.38zm677.41 1777.51c0,169.27 84.33,253.6 253.6,253.6 169.25,0 254.16,-84.33 254.16,-253.6l0 -1523.32c0,-169.26 -84.91,-254.19 -254.16,-254.19 -169.27,0 -253.6,84.93 -253.6,254.19l0 1523.32zm-169.27 -1523.32c0,-281.9 140.95,-423.44 422.87,-423.44 282.48,0 423.43,141.54 423.43,423.44l0 1523.32c0,281.92 -140.95,422.87 -423.43,422.87 -281.92,0 -422.87,-140.95 -422.87,-422.87l0 -1523.32zm1371.2 -86.65l0 2032.84 -169.26 0 0 -2369.63 169.26 0 507.77 871.72 0 -871.72 169.26 0 0 2369.63 -169.26 0 0 -1161.13 -507.77 -871.71zm1201.93 1863.57l507.77 0 0 169.27 -677.03 0 0 -2369.63 169.26 0 0 2200.36zm1286.28 -1731.29l-221.25 1223.53 443.07 0 -221.82 -1223.53zm-251.86 1392.78l-91.28 507.78 -171 0 428.06 -2369.63 172.73 0 428.06 2369.63 -170.99 0 -91.28 -507.78 -504.3 0zm1877.23 84.91c0,281.92 -140.95,422.87 -423.43,422.87l-422.86 0 0 -2369.63 422.86 0c282.48,0 423.43,141.54 423.43,423.44 0,155.39 -42.74,268.62 -128.82,338.51 86.08,69.91 128.82,182.56 128.82,338.52l0 846.29zm-677.03 253.6l253.6 0c169.25,0 254.17,-84.33 254.17,-253.6l0 -846.29c0,-169.25 -84.92,-254.17 -254.17,-254.17l-253.6 0 0 1354.06zm0 -2031.11l0 507.78 253.6 0c169.25,0 254.17,-84.33 254.17,-253.59 0,-169.26 -84.92,-254.19 -254.17,-254.19l-253.6 0zm1032.67 507.78c0,-451.16 225.87,-677.03 677.03,-677.03l0 169.25c-338.52,0 -507.77,169.27 -507.77,507.78 0,113.24 84.34,268.05 253.6,465.61 169.25,197.57 254.17,380.69 254.17,549.96 0,451.16 -225.87,677.03 -677.03,677.03l0 -169.27c338.51,0 507.78,-169.25 507.78,-507.76 0,-112.65 -84.92,-268.05 -254.18,-465.61 -169.27,-197 -253.6,-380.69 -253.6,-549.96z"/>
   <path class="fil0" d="M8714.7 1517.94c0,55.24 -18.2,101.37 -54.59,138.41 -36.4,37.04 -82.2,57.84 -137.44,62.39 -37.7,3.25 -74.41,4.54 -110.14,3.9l0 302.17 -70.19 0 0 -704.75c6.5,-1.29 12.02,-1.95 16.57,-1.95 70.83,-1.94 125.42,-1.29 163.76,1.95 54.58,4.55 100.23,25.19 136.96,61.9 36.71,36.71 55.07,82.05 55.07,135.98zm-71.16 1.95c0,-40.94 -11.38,-73.44 -34.12,-97.47 -21.45,-22.1 -49.71,-34.77 -84.8,-38.02 -35.09,-3.25 -72.46,-3.91 -112.09,-1.95l0 276.83c53.27,0 90.64,-0.97 112.09,-2.93 35.09,-3.25 63.68,-16.57 85.78,-39.96 22.09,-23.4 33.14,-55.57 33.14,-96.5zm963.55 483.47l-60.44 29.25 -153.04 -313.87c-38.98,3.25 -75.05,4.54 -108.18,3.9l0 302.17 -70.19 0 0 -704.75c6.5,-1.29 12.02,-1.95 16.57,-1.95 70.83,-1.94 125.42,-1.29 163.76,1.95 54.58,4.55 100.23,25.19 136.96,61.9 36.71,36.71 55.07,82.05 55.07,135.98 0,42.88 -11.55,80.91 -34.61,114.04 -23.07,33.15 -53.77,57.19 -92.11,72.13l146.21 299.25zm-90.65 -483.47c0,-40.94 -11.38,-73.44 -34.12,-97.47 -21.44,-22.1 -49.71,-34.77 -84.8,-38.02 -35.09,-3.25 -72.46,-3.91 -112.09,-1.95l0 276.83c53.28,0 90.64,-0.97 112.09,-2.93 35.09,-3.25 63.69,-16.57 85.78,-39.96 22.09,-23.4 33.14,-55.57 33.14,-96.5zm884.59 -260.26l-27.29 18.52 -77 -90.66 -77.01 90.66 -27.29 -18.52 65.31 -128.66c1.29,-2.61 2.92,-5.2 4.87,-7.81l67.26 0c1.95,2.61 3.57,5.2 4.87,7.81l66.28 128.66zm58.49 765.18l-332.39 0 0 -706.7 322.64 0 0 63.37 -252.45 0 0 247.58 232.96 0 0 63.36 -232.96 0 0 269.04 262.2 0 0 63.35zm986.95 0l-70.18 0 3.89 -472.75c3.25,-31.84 7.48,-75.71 12.67,-131.59l-0.97 0c-10.4,57.18 -22.42,102.34 -36.07,135.49l-114.04 281.69 -49.71 0 -114.05 -281.69c-13.64,-33.15 -25.67,-78.31 -36.07,-135.49l-0.97 0c3.9,28.59 8.12,72.45 12.67,131.59l5.86 472.75 -70.19 0 0 -706.7 62.38 0 147.19 383.08c5.85,15.59 12.02,39.32 18.52,71.16l0.98 0c0.64,-14.95 6.17,-38.67 16.56,-71.16l149.14 -383.08 62.39 0 0 706.7zm619.47 0l-70.19 0 0 -706.7 70.19 0 0 706.7zm983.05 -353.83c0,75.38 -1.95,130.61 -5.86,165.7 -7.14,57.18 -31.18,104.47 -72.13,141.84 -40.94,37.35 -89.67,56.04 -146.21,56.04 -56.54,0 -105.28,-18.69 -146.21,-56.04 -40.94,-37.37 -64.66,-84.66 -71.16,-141.84 -4.55,-35.09 -6.83,-90.32 -6.83,-165.7 0,-74.74 2.28,-129.97 6.83,-165.71 6.5,-57.18 30.22,-104.3 71.16,-141.34 40.93,-37.04 89.67,-55.57 146.21,-55.57 56.54,0 105.27,18.53 146.21,55.57 40.95,37.04 64.99,84.16 72.13,141.34 3.91,35.74 5.86,90.97 5.86,165.71zm-70.19 0c0,-74.74 -2.27,-129.97 -6.83,-165.71 -4.54,-38.34 -20.62,-70.02 -48.24,-95.05 -27.62,-25.01 -60.6,-37.52 -98.94,-37.52 -38.34,0 -71.32,12.51 -98.94,37.52 -27.62,25.03 -43.69,56.71 -48.25,95.05 -3.89,35.74 -5.85,90.97 -5.85,165.71 0,75.38 1.96,130.61 5.85,165.7 4.56,39 20.63,70.99 48.25,96.02 27.62,25.01 60.6,37.52 98.94,37.52 38.34,0 71.32,-12.51 98.94,-37.52 27.62,-25.03 43.7,-57.02 48.24,-96.02 4.56,-35.09 6.83,-90.32 6.83,-165.7z"/>
   <path class="fil1" d="M4456.3 5280.61c22,0 43.82,0.88 65.41,2.51l56.68 -517.12c-146.28,-55.45 -250.52,-199.12 -250.52,-367.57 0,-216.48 172.15,-392.03 384.49,-392.03 212.36,0 384.51,175.55 384.51,392.03 0,73.03 -19.63,141.39 -53.73,199.93l806.31 784.76c70.03,-75.24 169.07,-122.16 278.84,-122.16 212.36,0 384.51,175.56 384.51,392.04 0,216.5 -172.15,392.03 -384.51,392.03 -212.34,0 -384.49,-175.53 -384.49,-392.03 0,-66.36 16.19,-128.85 44.74,-183.65l-809.82 -788.21c-69.09,67.7 -162.97,109.33 -266.36,109.33 -10.64,0 -21.15,-0.48 -31.58,-1.34l-55.72 508.26c398.79,80.11 699.57,438.56 699.57,868.55 0,488.93 -388.77,885.33 -868.33,885.33 -479.55,0 -868.32,-396.4 -868.32,-885.33 0,-238.78 92.77,-455.49 243.56,-614.74l-165.27 -195.37c-107.15,78.81 -238.74,125.27 -380.94,125.27 -63.97,0 -125.77,-9.47 -184.17,-26.96l-246.51 633.4c123.12,65.36 207.2,196.65 207.2,347.94 0,216.5 -172.15,392.04 -384.51,392.04 -212.34,0 -384.49,-175.54 -384.49,-392.04 0,-56.76 11.85,-110.7 33.14,-159.42l-279.26 -171.32c-69.49,70.39 -165.23,113.89 -270.94,113.89 -212.34,0 -384.49,-175.54 -384.49,-392.04 0,-131.73 63.72,-248.31 161.49,-319.39l-83.79 -222.66c-52.08,14.36 -106.83,22.07 -163.37,22.07 -344.55,0 -623.89,-284.82 -623.89,-636.15 0,-249.58 141.05,-465.64 346.32,-569.78l-44.28 -134.95c-33.94,9.99 -69.81,15.38 -106.9,15.38 -212.34,0 -384.5,-175.54 -384.5,-392.04 0,-216.48 172.16,-392.03 384.5,-392.03 212.36,0 384.51,175.55 384.51,392.03 0,140.72 -72.75,264.11 -181.98,333.27l45.67 139.11c57.16,-17.6 117.77,-27.11 180.55,-27.11 344.6,0 623.94,284.86 623.94,636.12 0,256.21 -148.58,477.02 -362.67,577.82l78.77 209.31c40.63,-14.91 84.45,-23.03 130.12,-23.03 212.36,0 384.51,175.55 384.51,392.03 0,70.73 -18.39,137.08 -50.53,194.37l270.35 165.82c70.52,-87.51 177.48,-143.33 297.22,-143.33 27.15,0 53.65,2.86 79.21,8.33l247.39 -635.64c-219.16,-107.09 -370.51,-335.4 -370.51,-599.73 0,-367.04 291.88,-664.7 651.9,-664.7 360.06,0 651.94,297.66 651.94,664.7 0,187.82 -76.43,357.42 -199.3,478.31l162.02 191.52c150.66,-128.34 344.63,-205.63 556.31,-205.63zm1675.46 154.3c118.62,0 214.78,98.06 214.78,218.97 0,120.92 -96.16,218.96 -214.78,218.96 -118.59,0 -214.75,-98.04 -214.75,-218.96 0,-120.91 96.16,-218.97 214.75,-218.97zm-1415.93 -1254.56c118.62,0 214.78,98.06 214.78,218.96 0,120.93 -96.16,218.97 -214.78,218.97 -118.59,0 -214.75,-98.04 -214.75,-218.97 0,-120.9 96.16,-218.96 214.75,-218.96zm-3843.03 -819.84c118.63,0 214.79,98.07 214.79,218.97 0,120.93 -96.16,218.97 -214.79,218.97 -118.58,0 -214.74,-98.04 -214.74,-218.97 0,-120.9 96.16,-218.97 214.74,-218.97zm2414.79 997.04c248.37,0 449.72,205.32 449.72,458.5 0,253.2 -201.35,458.5 -449.72,458.5 -248.33,0 -449.68,-205.3 -449.68,-458.5 0,-253.18 201.35,-458.5 449.68,-458.5zm-606.78 1859.84c118.62,0 214.78,98.06 214.78,218.97 0,120.92 -96.16,218.97 -214.78,218.97 -118.59,0 -214.75,-98.05 -214.75,-218.97 0,-120.91 96.16,-218.97 214.75,-218.97zm-901.55 -608.89c118.63,0 214.79,98.06 214.79,218.97 0,120.92 -96.16,218.96 -214.79,218.96 -118.59,0 -214.74,-98.04 -214.74,-218.96 0,-120.91 96.15,-218.97 214.74,-218.97zm2682.24 -105.25c360.43,0 652.61,297.95 652.61,665.34 0,367.42 -292.18,665.34 -652.61,665.34 -360.37,0 -652.55,-297.92 -652.55,-665.34 0,-367.39 292.18,-665.34 652.55,-665.34zm-3153.49 -1293.79c249.61,0 451.96,206.34 451.96,460.79 0,254.46 -202.35,460.78 -451.96,460.78 -249.58,0 -451.93,-206.32 -451.93,-460.78 0,-254.45 202.35,-460.79 451.93,-460.79zm5615.07 12.5c107.28,213.7 20.98,474 -192.67,581.32 -213.7,107.28 -474.01,20.98 -581.33,-192.67 -107.27,-213.7 -20.98,-474.01 192.68,-581.33 213.7,-107.28 474,-20.98 581.32,192.68zm-799.14 -971.54c38.56,76.78 7.55,170.33 -69.24,208.89 -76.78,38.56 -170.33,7.54 -208.89,-69.24 -38.56,-76.79 -7.55,-170.34 69.24,-208.9 76.78,-38.56 170.33,-7.54 208.89,69.25zm927.59 -257.61c57.16,113.86 11.18,252.55 -102.66,309.73 -113.86,57.16 -252.55,11.18 -309.73,-102.66 -57.16,-113.86 -11.18,-252.55 102.66,-309.73 113.86,-57.16 252.55,-11.18 309.73,102.66zm-2082.19 -461.22c236.1,0 427.57,191.46 427.57,427.57 0,236.06 -191.47,427.52 -427.57,427.52 -236.06,0 -427.52,-191.46 -427.52,-427.52 0,-236.11 191.46,-427.57 427.52,-427.57zm-633.55 -1032.17c162.45,0 294.14,131.69 294.14,294.14 0,162.41 -131.69,294.12 -294.14,294.12 -162.41,0 -294.12,-131.71 -294.12,-294.12 0,-162.45 131.71,-294.14 294.12,-294.14zm-1843.98 1035.54c361.02,0 653.72,298.44 653.72,666.47 0,368.04 -292.7,666.47 -653.72,666.47 -360.96,0 -653.63,-298.43 -653.63,-666.47 0,-368.03 292.67,-666.47 653.63,-666.47zm-1321.15 -440.57c118.63,0 214.79,98.06 214.79,218.97 0,120.92 -96.16,218.96 -214.79,218.96 -118.58,0 -214.74,-98.04 -214.74,-218.96 0,-120.91 96.16,-218.97 214.74,-218.97zm1055.77 -1090.77c248.37,0 449.72,205.32 449.72,458.49 0,253.2 -201.35,458.5 -449.72,458.5 -248.33,0 -449.68,-205.3 -449.68,-458.5 0,-253.17 201.35,-458.49 449.68,-458.49zm1158.65 -520.07c120.99,0 219.1,100.03 219.1,223.36 0,123.37 -98.11,223.39 -219.1,223.39 -120.98,0 -219.07,-100.02 -219.07,-223.39 0,-123.33 98.09,-223.36 219.07,-223.36zm952.74 869.43c247.78,0 448.69,200.9 448.69,448.69 0,158.38 -82.09,297.61 -206.05,377.45l120.26 215.73c78.83,-36.5 166.63,-56.87 259.19,-56.87 341.3,0 618.03,276.73 618.03,618.02 0,67.59 -10.89,132.63 -30.95,193.51l188.99 66.65c24.91,-56.01 68.61,-104.08 127.66,-133.72 135.59,-68.09 300.76,-13.35 368.85,122.25 68.07,135.57 13.34,300.74 -122.26,368.83 -135.58,68.07 -300.75,13.34 -368.82,-122.24 -27.29,-54.34 -34.83,-113.44 -25.37,-169.14l-197.56 -61.36c-99.19,208.83 -312.03,353.25 -558.57,353.25 -341.29,0 -618.02,-276.74 -618.02,-618.03 0,-221.62 116.7,-415.99 291.97,-525.06l-113.59 -219.26c-55.74,24.85 -117.48,38.69 -182.45,38.69 -239.97,0 -435.97,-188.46 -448.09,-425.42l-764.37 776.41c146.97,158.58 237.13,372.53 237.13,607.88 0,488.93 -388.77,885.33 -868.34,885.33 -479.54,0 -868.31,-396.4 -868.31,-885.33 0,-150.56 36.9,-292.32 101.96,-416.46l-257.42 -219.16c-70.53,86.38 -176.79,141.37 -295.64,141.37 -212.34,0 -384.49,-175.54 -384.49,-392.04 0,-216.48 172.15,-392.04 384.49,-392.04 71.98,0 139.34,20.19 196.93,55.28l270.2 -230c-39.78,-85.94 -62.06,-181.93 -62.06,-283.25 0,-367.04 291.89,-664.69 651.91,-664.69 183.91,0 350,77.68 468.52,202.58l332.23 -163.63c-14.43,-40.83 -22.26,-84.83 -22.26,-130.72 0,-213.35 169.66,-386.35 378.91,-386.35 194.64,0 354.98,149.64 376.46,342.21l649.61 0 -1.47 104.43 -650.25 0c-28.4,184.73 -185.19,326.06 -374.35,326.06 -127.51,0 -240.33,-64.25 -309,-162.71l-312.7 153.99c73.27,107.49 116.24,238.03 116.24,378.83 0,367.08 -291.88,664.69 -651.94,664.69 -223.17,0 -420.17,-114.36 -537.67,-288.77l-240.2 204.49c65.31,70.26 105.4,165.17 105.4,269.6 0,57.22 -12.02,111.58 -33.65,160.59l256.79 218.59c157,-228.66 417.25,-378.22 711.76,-378.22 211.36,0 405.04,77.04 555.62,205.03l855.55 -847.04c52.39,-189.65 226.19,-328.92 432.5,-328.92zm2388.24 1368.11l-207.83 -416.84 93.43 -46.59 222.45 446.21 5.18 -0.06c212.37,0 384.52,175.55 384.52,392.03 0,216.5 -172.15,392.04 -384.52,392.04 -17.78,0 -35.27,-1.26 -52.41,-3.64l-52.88 329.84c242.92,87.03 417.08,322.92 417.08,600.26 0,351.32 -279.35,636.14 -623.94,636.14 -344.55,0 -623.9,-284.82 -623.9,-636.14 0,-351.26 279.35,-636.12 623.9,-636.12 35.94,0 71.16,3.13 105.41,9.09l53.26 -331.95c-135.98,-60.42 -231.01,-198.65 -231.01,-359.52 0,-176.31 114.18,-325.47 271.26,-374.75z"/>
   <path class="fil1" d="M6705.46 1681.63c807.23,214.94 1553.77,-718.13 1290.49,-1475.85 -799.69,-252.44 -1635.4,687.54 -1290.49,1475.85zm-1655.59 -659.33l1007.97 835.35c-49.51,71.94 -74.86,160.62 -65.79,253.77 20.63,212.11 211.84,367.09 427.09,346.16 215.25,-20.94 373.01,-209.87 352.37,-421.99 -20.63,-212.11 -211.85,-367.1 -427.09,-346.16 -67.52,6.56 -129.36,29.67 -181.84,64.82l-1034.14 -854.83c21.8,-54.76 31.22,-115.24 25.14,-177.74 -20.64,-212.11 -211.85,-367.1 -427.09,-346.17 -215.26,20.94 -373.01,209.88 -352.38,421.99 20.63,212.12 211.85,367.1 427.1,346.16 98.96,-9.62 185.75,-54.78 248.66,-121.36zm1309.2 817.69c130.86,-12.73 247.12,81.5 259.66,210.47 12.55,128.96 -83.37,243.83 -214.23,256.56 -130.87,12.73 -247.13,-81.5 -259.67,-210.46 -12.55,-128.97 83.36,-243.84 214.24,-256.57zm-1617.94 -1313.91c130.87,-12.73 247.12,81.5 259.67,210.46 12.54,128.97 -83.37,243.84 -214.24,256.57 -130.87,12.73 -247.12,-81.5 -259.67,-210.47 -12.54,-128.96 83.37,-243.83 214.24,-256.56zm2039.5 959.82c-198.44,-636.47 566.36,-1353.79 1109.33,-1186.06 136.08,634.96 -365.64,1275.43 -990.87,1273.98l697.75 -826.58c110.13,-133.6 33.4,-251.19 -103.4,-89.55l-712.81 828.21z"/>
  </g>
 </g>
</svg>
