<?xml version="1.0" encoding="UTF-8"?>
<!DOCTYPE svg PUBLIC "-//W3C//DTD SVG 1.1//EN" "http://www.w3.org/Graphics/SVG/1.1/DTD/svg11.dtd">
<!-- Creator: CorelDRAW 2020 (64 Bit) -->
<svg xmlns="http://www.w3.org/2000/svg" xml:space="preserve" width="116mm" height="116mm" version="1.1" style="shape-rendering:geometricPrecision; text-rendering:geometricPrecision; image-rendering:optimizeQuality; fill-rule:evenodd; clip-rule:evenodd"
viewBox="0 0 11600 11600"
 xmlns:xlink="http://www.w3.org/1999/xlink"
 xmlns:xodm="http://www.corel.com/coreldraw/odm/2003">
 <defs>
  <style type="text/css">
   <![CDATA[
    .fil1 {fill:#00DC4B}
    .fil0 {fill:#531172}
   ]]>
  </style>
 </defs>
 <g id="Camada_x0020_1">
  <metadata id="CorelCorpID_0Corel-Layer"/>
  <g id="_2323894707888">
   <path class="fil0" d="M6074.99 8360.06c33.57,0 66.86,1.34 99.8,3.82l86.47 -788.95c-223.17,-84.59 -382.21,-303.78 -382.21,-560.78 0,-330.27 262.64,-598.12 586.6,-598.12 324,0 586.64,267.85 586.64,598.12 0,111.41 -29.94,215.71 -81.98,305.02l1230.16 1197.29c106.85,-114.79 257.96,-186.38 425.42,-186.38 324,0 586.64,267.85 586.64,598.12 0,330.31 -262.64,598.12 -586.64,598.12 -323.96,0 -586.6,-267.81 -586.6,-598.12 0,-101.24 24.71,-196.58 68.27,-280.18l-1235.52 -1202.55c-105.42,103.28 -248.65,166.8 -406.39,166.8 -16.23,0 -32.27,-0.74 -48.18,-2.04l-85 775.43c608.41,122.22 1067.31,669.1 1067.31,1325.12 0,745.94 -593.14,1350.72 -1324.79,1350.72 -731.63,0 -1324.77,-604.78 -1324.77,-1350.72 0,-364.3 141.54,-694.92 371.6,-937.9l-252.15 -298.07c-163.48,120.25 -364.24,191.13 -581.19,191.13 -97.6,0 -191.89,-14.45 -280.98,-41.13l-376.09 966.36c187.84,99.71 316.11,300.02 316.11,530.84 0,330.31 -262.64,598.12 -586.63,598.12 -323.97,0 -586.61,-267.81 -586.61,-598.12 0,-86.6 18.08,-168.9 50.57,-243.22l-426.06 -261.37c-106.02,107.39 -252.09,173.74 -413.37,173.74 -323.96,0 -586.6,-267.81 -586.6,-598.11 0,-200.98 97.22,-378.84 246.38,-487.29l-127.83 -339.71c-79.46,21.91 -163,33.67 -249.26,33.67 -525.67,0 -951.86,-434.54 -951.86,-970.54 0,-380.78 215.2,-710.42 528.39,-869.31l-67.57 -205.89c-51.78,15.25 -106.5,23.47 -163.1,23.47 -323.96,0 -586.6,-267.81 -586.6,-598.11 0,-330.28 262.64,-598.12 586.6,-598.12 324,0 586.64,267.84 586.64,598.12 0,214.68 -110.99,402.94 -277.63,508.45l69.67 212.23c87.21,-26.85 179.68,-41.35 275.46,-41.35 525.74,0 951.93,434.6 951.93,970.51 0,390.89 -226.68,727.76 -553.32,881.55l120.18 319.34c61.99,-22.74 128.85,-35.14 198.52,-35.14 323.99,0 586.64,267.84 586.64,598.12 0,107.9 -28.06,209.14 -77.1,296.54l412.48 252.98c107.58,-133.51 270.77,-218.68 453.45,-218.68 41.42,0 81.85,4.37 120.84,12.73l377.44 -969.78c-334.36,-163.39 -565.28,-511.71 -565.28,-915 0,-559.98 445.32,-1014.1 994.59,-1014.1 549.33,0 994.65,454.12 994.65,1014.1 0,286.56 -116.61,545.31 -304.06,729.74l247.18 292.2c229.86,-195.81 525.8,-313.72 848.74,-313.72zm2556.2 235.41c180.98,0 327.69,149.61 327.69,334.07 0,184.49 -146.71,334.07 -327.69,334.07 -180.92,0 -327.63,-149.58 -327.63,-334.07 0,-184.46 146.71,-334.07 327.63,-334.07zm-2160.24 -1914.05c180.98,0 327.69,149.61 327.69,334.07 0,184.49 -146.71,334.07 -327.69,334.07 -180.92,0 -327.63,-149.58 -327.63,-334.07 0,-184.46 146.71,-334.07 327.63,-334.07zm-5863.19 -1250.79c180.98,0 327.69,149.61 327.69,334.07 0,184.49 -146.71,334.07 -327.69,334.07 -180.92,0 -327.63,-149.58 -327.63,-334.07 0,-184.46 146.71,-334.07 327.63,-334.07zm3684.16 1521.15c378.94,0 686.13,313.25 686.13,699.52 0,386.29 -307.19,699.51 -686.13,699.51 -378.87,0 -686.05,-313.22 -686.05,-699.51 0,-386.27 307.18,-699.52 686.05,-699.52zm-925.74 2837.5c180.98,0 327.69,149.61 327.69,334.07 0,184.49 -146.71,334.07 -327.69,334.07 -180.92,0 -327.63,-149.58 -327.63,-334.07 0,-184.46 146.71,-334.07 327.63,-334.07zm-1375.47 -928.96c180.99,0 327.7,149.6 327.7,334.07 0,184.49 -146.71,334.06 -327.7,334.06 -180.92,0 -327.62,-149.57 -327.62,-334.06 0,-184.47 146.7,-334.07 327.62,-334.07zm4092.22 -160.58c549.9,0 995.67,454.56 995.67,1015.09 0,560.55 -445.77,1015.09 -995.67,1015.09 -549.81,0 -995.58,-454.54 -995.58,-1015.09 0,-560.53 445.77,-1015.09 995.58,-1015.09zm-4811.18 -1973.9c380.81,0 689.53,314.81 689.53,703.02 0,388.21 -308.72,702.99 -689.53,702.99 -380.78,0 -689.5,-314.78 -689.5,-702.99 0,-388.21 308.72,-703.02 689.5,-703.02zm8566.74 19.07c163.67,326.03 32.01,723.17 -293.96,886.9 -326.03,163.67 -723.17,32.02 -886.91,-293.95 -163.67,-326.04 -32.01,-723.18 293.96,-886.91 326.03,-163.67 723.17,-32.01 886.91,293.96zm-1219.23 -1482.25c58.83,117.14 11.51,259.87 -105.64,318.7 -117.14,58.82 -259.87,11.51 -318.7,-105.64 -58.83,-117.15 -11.51,-259.87 105.64,-318.7 117.15,-58.83 259.87,-11.51 318.7,105.64zm1415.2 -393.03c87.21,173.71 17.06,385.31 -156.63,472.55 -173.71,87.21 -385.31,17.06 -472.55,-156.63 -87.2,-173.71 -17.06,-385.3 156.63,-472.54 173.71,-87.21 385.31,-17.06 472.55,156.62zm-3176.74 -703.66c360.22,0 652.33,292.11 652.33,652.32 0,360.15 -292.11,652.26 -652.33,652.26 -360.15,0 -652.26,-292.11 -652.26,-652.26 0,-360.21 292.11,-652.32 652.26,-652.32zm-966.59 -1574.75c247.85,0 448.76,200.91 448.76,448.76 0,247.79 -200.91,448.73 -448.76,448.73 -247.78,0 -448.73,-200.94 -448.73,-448.73 0,-247.85 200.95,-448.76 448.73,-448.76zm-2813.3 1579.88c550.8,0 997.36,455.33 997.36,1016.81 0,561.52 -446.56,1016.82 -997.36,1016.82 -550.7,0 -997.23,-455.3 -997.23,-1016.82 0,-561.48 446.53,-1016.81 997.23,-1016.81zm-2015.63 -672.15c180.98,0 327.69,149.61 327.69,334.07 0,184.49 -146.71,334.07 -327.69,334.07 -180.93,0 -327.63,-149.58 -327.63,-334.07 0,-184.46 146.7,-334.07 327.63,-334.07zm1610.75 -1664.16c378.93,0 686.12,313.24 686.12,699.51 0,386.3 -307.19,699.52 -686.12,699.52 -378.87,0 -686.06,-313.22 -686.06,-699.52 0,-386.27 307.19,-699.51 686.06,-699.51zm1767.72 -793.45c184.59,0 334.26,152.6 334.26,340.76 0,188.23 -149.67,340.83 -334.26,340.83 -184.59,0 -334.23,-152.6 -334.23,-340.83 0,-188.16 149.64,-340.76 334.23,-340.76zm1453.55 1326.45c378.04,0 684.56,306.52 684.56,684.56 0,241.63 -125.24,454.06 -314.36,575.86l183.47 329.13c120.28,-55.67 254.23,-86.76 395.45,-86.76 520.7,0 942.9,422.2 942.9,942.9 0,103.12 -16.61,202.35 -47.22,295.23l288.34 101.68c38.01,-85.45 104.69,-158.79 194.76,-204 206.88,-103.89 458.87,-20.38 562.76,186.5 103.85,206.84 20.34,458.84 -186.53,562.72 -206.85,103.85 -458.84,20.35 -562.7,-186.5 -41.64,-82.9 -53.15,-173.08 -38.71,-258.05l-301.41 -93.62c-151.33,318.61 -476.06,538.94 -852.19,538.94 -520.7,0 -942.9,-422.2 -942.9,-942.9 0,-338.12 178.05,-634.66 445.45,-801.07l-173.3 -334.52c-85.04,37.91 -179.23,59.02 -278.37,59.02 -366.11,0 -665.14,-287.51 -683.63,-649.04l-1166.17 1184.53c224.23,241.96 361.78,568.37 361.78,927.44 0,745.94 -593.14,1350.72 -1324.79,1350.72 -731.63,0 -1324.77,-604.78 -1324.77,-1350.72 0,-229.71 56.31,-445.99 155.57,-635.39l-392.74 -334.36c-107.61,131.79 -269.72,215.68 -451.06,215.68 -323.96,0 -586.6,-267.81 -586.6,-598.12 0,-330.27 262.64,-598.11 586.6,-598.11 109.82,0 212.59,30.8 300.46,84.33l412.23 -350.9c-60.68,-131.12 -94.67,-277.57 -94.67,-432.15 0,-559.98 445.32,-1014.1 994.58,-1014.1 280.6,0 534,118.52 714.82,309.07l506.86 -249.64c-22,-62.3 -33.96,-129.42 -33.96,-199.44 0,-325.5 258.85,-589.45 578.1,-589.45 296.95,0 541.58,228.31 574.36,522.1l991.08 0 -2.24 159.34 -992.06 0c-43.34,281.84 -282.54,497.45 -571.14,497.45 -194.54,0 -366.66,-98.02 -471.44,-248.23l-477.08 234.93c111.8,163.99 177.35,363.15 177.35,577.97 0,560.04 -445.32,1014.1 -994.65,1014.1 -340.48,0 -641.03,-174.48 -820.29,-440.57l-366.47 311.97c99.64,107.2 160.8,252 160.8,411.33 0,87.31 -18.33,170.24 -51.34,245.01l391.79 333.5c239.52,-348.87 636.57,-577.04 1085.91,-577.04 322.46,0 617.94,117.53 847.68,312.8l1305.29 -1292.31c79.93,-289.33 345.1,-501.82 659.84,-501.82zm3643.68 2087.29l-317.08 -635.97 142.53 -71.07 339.4 680.77 7.91 -0.1c323.99,0 586.63,267.84 586.63,598.12 0,330.3 -262.64,598.11 -586.63,598.11 -27.14,0 -53.83,-1.91 -79.97,-5.54l-80.68 503.22c370.61,132.77 636.32,492.67 636.32,915.8 0,536 -426.19,970.54 -951.92,970.54 -525.68,0 -951.86,-434.54 -951.86,-970.54 0,-535.91 426.18,-970.52 951.86,-970.52 54.84,0 108.57,4.79 160.83,13.87l81.24 -506.44c-207.45,-92.18 -352.43,-303.08 -352.43,-548.5 0,-268.99 174.19,-496.56 413.85,-571.75z"/>
   <path class="fil1" d="M9506.47 2869.21c1231.56,327.92 2370.54,-1095.63 1968.86,-2251.65 -1220.06,-385.15 -2495.08,1048.94 -1968.86,2251.65zm-2525.88 -1005.93l1537.82 1274.48c-75.53,109.76 -114.2,245.04 -100.38,387.16 31.48,323.62 323.21,560.07 651.61,528.12 328.39,-31.94 569.08,-320.19 537.6,-643.8 -31.48,-323.61 -323.21,-560.08 -651.6,-528.14 -103.01,10.02 -197.36,45.28 -277.43,98.91l-1577.76 -1304.19c33.27,-83.55 47.63,-175.83 38.36,-271.17 -31.48,-323.62 -323.21,-560.09 -651.6,-528.14 -328.4,31.94 -569.09,320.2 -537.61,643.82 31.48,323.61 323.21,560.07 651.61,528.12 150.99,-14.69 283.4,-83.57 379.38,-185.17zm1997.4 1247.54c199.66,-19.43 377.02,124.34 396.16,321.09 19.14,196.76 -127.19,372.01 -326.85,391.43 -199.67,19.43 -377.03,-124.34 -396.17,-321.09 -19.14,-196.76 127.19,-372.01 326.86,-391.43zm-2468.44 -2004.6c199.66,-19.42 377.03,124.35 396.17,321.1 19.13,196.75 -127.2,372.01 -326.85,391.43 -199.67,19.42 -377.04,-124.34 -396.18,-321.1 -19.14,-196.75 127.19,-372.01 326.86,-391.43zm3111.61 1464.38c-302.76,-971.05 864.08,-2065.45 1692.46,-1809.55 207.62,968.74 -557.84,1945.88 -1511.73,1943.67l1064.53 -1261.09c168.02,-203.82 50.96,-383.22 -157.75,-136.62l-1087.51 1263.59z"/>
  </g>
 </g>
</svg>
