<?xml version="1.0" encoding="UTF-8"?>
<!DOCTYPE svg PUBLIC "-//W3C//DTD SVG 1.1//EN" "http://www.w3.org/Graphics/SVG/1.1/DTD/svg11.dtd">
<!-- Creator: CorelDRAW 2020 (64 Bit) -->
<svg xmlns="http://www.w3.org/2000/svg" xml:space="preserve" width="200mm" height="72mm" version="1.1" style="shape-rendering:geometricPrecision; text-rendering:geometricPrecision; image-rendering:optimizeQuality; fill-rule:evenodd; clip-rule:evenodd"
viewBox="0 0 20000 7200"
 xmlns:xlink="http://www.w3.org/1999/xlink"
 xmlns:xodm="http://www.corel.com/coreldraw/odm/2003">
 <defs>
  <style type="text/css">
   <![CDATA[
    .fil3 {fill:#00DC4B}
    .fil2 {fill:#531172}
    .fil1 {fill:#00DC4B;fill-rule:nonzero}
    .fil0 {fill:#531172;fill-rule:nonzero}
   ]]>
  </style>
 </defs>
 <g id="Camada_x0020_1">
  <metadata id="CorelCorpID_0Corel-Layer"/>
  <path class="fil0" d="M8240.23 6070.82l-341.44 0c-1.89,-10 -2.83,-30.64 -2.83,-61.9 -1.87,-49.41 13.77,-99.13 46.91,-149.15 20.63,-31.89 56.6,-72.86 107.87,-122.88 43.77,-42.53 71.91,-72.54 84.43,-90.06 24.39,-33.76 36.57,-68.16 36.57,-103.18 0,-28.77 -10.94,-52.84 -32.83,-72.22 -21.88,-19.39 -46.89,-29.09 -75.03,-29.09 -1.26,0 -1.89,0 -1.89,0 -31.89,0 -60.65,9.39 -86.29,28.14 -8.75,6.89 -19.07,15.96 -30.95,27.22 -12.52,-11.89 -25.95,-24.4 -40.34,-37.53 40.65,-52.53 94.43,-78.79 161.34,-78.79 46.28,0 86.92,16.26 121.95,48.78 35.01,32.51 52.53,70.65 52.53,114.43 0,48.15 -17.83,95.68 -53.47,142.58 -14.39,19.39 -51.59,58.15 -111.62,116.32 -75.67,73.78 -113.51,142.57 -113.51,206.36l278.6 0 0 60.97zm918.79 -340.49c0,87.53 -1.89,147.26 -5.64,179.16 -5.62,49.39 -26.42,90.21 -62.37,122.4 -35.96,32.22 -78.33,48.31 -127.11,48.31 -48.77,0 -91.14,-16.09 -127.1,-48.31 -35.95,-32.19 -56.75,-73.01 -62.37,-122.4 -3.76,-31.9 -5.64,-91.63 -5.64,-179.16 0,-86.93 1.88,-146.34 5.64,-178.24 5.62,-49.39 26.42,-90.21 62.37,-122.4 35.96,-32.22 78.33,-48.31 127.1,-48.31 48.78,0 91.15,16.09 127.11,48.31 35.95,32.19 56.75,73.01 62.37,122.4 3.75,31.9 5.64,91.31 5.64,178.24zm-67.54 0c0,-81.31 -2.19,-140.4 -6.57,-177.29 -3.75,-31.27 -17.2,-57.54 -40.34,-78.8 -23.14,-21.26 -50.02,-31.9 -80.67,-31.9 -30.64,0 -57.52,10.64 -80.67,31.9 -23.14,21.26 -36.58,47.53 -40.34,78.8 -4.37,36.89 -6.56,95.98 -6.56,177.29 0,81.91 2.19,141.32 6.56,178.21 3.76,31.27 17.2,57.53 40.34,78.8 23.15,21.26 50.03,31.9 80.67,31.9 30.65,0 57.53,-10.64 80.67,-31.9 23.14,-21.27 36.59,-47.53 40.34,-78.8 4.38,-36.89 6.57,-96.3 6.57,-178.21zm940.36 340.49l-341.44 0c-1.88,-10 -2.82,-30.64 -2.82,-61.9 -1.87,-49.41 13.76,-99.13 46.9,-149.15 20.64,-31.89 56.6,-72.86 107.87,-122.88 43.78,-42.53 71.92,-72.54 84.44,-90.06 24.38,-33.76 36.57,-68.16 36.57,-103.18 0,-28.77 -10.94,-52.84 -32.83,-72.22 -21.88,-19.39 -46.9,-29.09 -75.04,-29.09 -1.26,0 -1.88,0 -1.88,0 -31.89,0 -60.66,9.39 -86.29,28.14 -8.75,6.89 -19.07,15.96 -30.95,27.22 -12.52,-11.89 -25.95,-24.4 -40.34,-37.53 40.64,-52.53 94.43,-78.79 161.33,-78.79 46.29,0 86.93,16.26 121.95,48.78 35.02,32.51 52.53,70.65 52.53,114.43 0,48.15 -17.82,95.68 -53.47,142.58 -14.38,19.39 -51.58,58.15 -111.62,116.32 -75.67,73.78 -113.5,142.57 -113.5,206.36l278.59 0 0 60.97zm680.53 0l-67.54 0 0 -619.09 -93.8 0 0 -60.97 161.34 0 0 680.06zm1120.47 0l-319.88 0 0 -680.06 310.49 0 0 60.97 -242.95 0 0 238.26 224.2 0 0 60.97 -224.2 0 0 258.89 252.34 0 0 60.97zm891.57 -340.49c0,76.29 -1.87,130.06 -5.62,161.33 -6.26,51.28 -25.18,92.4 -56.75,123.35 -31.59,30.96 -73.01,48.93 -124.29,53.94 -41.27,3.74 -101,4.38 -179.16,1.87 -3.76,0 -9.07,-0.31 -15.96,-0.94l0 -678.18c2.51,-0.64 7.83,-0.94 15.96,-0.94 78.16,-2.51 137.89,-1.89 179.16,1.87 51.28,5.01 92.7,22.99 124.29,53.94 31.57,30.95 50.49,72.07 56.75,123.35 3.75,31.27 5.62,84.74 5.62,160.41zm-67.54 0c0,-70.05 -2.18,-123.52 -6.56,-160.41 -8.13,-66.28 -45.34,-104.75 -111.62,-115.38 -26.89,-4.37 -69.73,-5 -128.52,-1.88l0 556.26c58.79,3.12 101.63,2.49 128.52,-1.88 40.02,-6.25 68.79,-21.88 86.29,-46.91 15.01,-20.63 24.39,-51.9 28.14,-93.8 2.51,-35.64 3.75,-80.98 3.75,-136zm644.9 340.49l-67.54 0 0 -680.06 67.54 0 0 680.06zm894.41 -87.23c-33.78,59.41 -86.61,91.61 -158.52,96.61l0 24.39c15.62,2.5 29.06,10.31 40.32,23.46 11.26,13.12 17.2,27.82 17.83,44.08 0,7.5 0.31,13.44 0.94,17.82 0,4.38 -0.32,10.32 -0.94,17.82 -0.63,20.64 -8.13,37.37 -22.52,50.19 -14.38,12.82 -31.58,19.22 -51.59,19.22 -6.88,0 -10.32,0 -10.32,0 -28.14,-3.74 -46.58,-16.88 -55.34,-39.38l-1.88 -4.7 30.95 -20.63c6.89,8.13 11.58,13.44 14.07,15.94 5.64,5.01 11.58,7.82 17.83,8.45 3.13,0 4.69,0 4.69,0 18.14,0 28.46,-10.32 30.95,-30.96 0.63,-2.5 0.95,-7.82 0.95,-15.95 0,-8.13 -0.32,-13.45 -0.95,-15.94 -2.49,-20.64 -12.81,-30.95 -30.95,-30.95l-27.2 0 0 -63.79c-48.77,-6.26 -90.36,-26.74 -124.76,-61.45 -34.39,-34.7 -54.09,-76.76 -59.09,-126.16 0,-0.62 -0.63,-8.13 -1.88,-22.51 -2.5,-30.01 -3.74,-75.98 -3.74,-137.9 0,-75.66 1.87,-129.12 5.62,-160.39 6.26,-55.04 29.39,-100.38 69.41,-136.02 40.02,-35.65 87.24,-53.46 141.64,-53.46 66.29,0 119.13,25.94 158.53,77.85l-43.15 37.52 -11.25 -11.25c-28.14,-28.14 -62.86,-42.21 -104.13,-42.21 -36.89,0 -68.78,12.18 -95.68,36.58 -26.88,24.39 -42.51,55.02 -46.89,91.93 -3.75,31.26 -5.64,84.42 -5.64,159.45 0,75.05 1.89,128.2 5.64,159.47 4.38,36.89 20.01,67.54 46.89,91.93 26.9,24.39 58.79,36.59 95.68,36.59 46.91,0 84.42,-16.9 112.56,-50.66 1.89,-1.87 6.57,-7.51 14.07,-16.88l47.85 31.89zm799.65 -743.85c-13.13,41.89 -39.38,64.41 -78.78,67.54 -15.02,0 -32.84,-5.64 -53.47,-16.9 -20.64,-11.24 -35.03,-16.88 -43.16,-16.88 -6.24,0 -11.88,1.25 -16.88,3.75 -12.5,5 -21.57,14.07 -27.2,27.2l-35.64 -18.75c13.13,-41.9 39.4,-64.41 78.78,-67.54 13.14,0 30.65,5.78 52.54,17.35 21.89,11.57 36.58,17.36 44.08,17.36 6.26,-0.63 11.89,-1.89 16.89,-3.76 12.5,-5.62 21.57,-15.01 27.21,-28.14l35.63 18.77zm107.88 818.88l-66.6 19.71 -60.03 -207.3 -217.63 0 -60.03 207.3 -66.6 -19.71 205.43 -667.86 60.03 0 205.43 667.86zm-144.45 -248.57l-75.99 -265.46c-10,-34.39 -14.69,-56.59 -14.07,-66.6l-1.87 0c0.62,10.01 -3.75,32.21 -13.13,66.6l-76.93 265.46 181.99 0zm1029.47 -79.72c0,72.54 -1.87,125.69 -5.63,159.45 -6.88,55.03 -30.02,100.53 -69.42,136.49 -39.4,35.95 -86.29,53.93 -140.7,53.93 -54.4,0 -101.31,-17.98 -140.7,-53.93 -39.4,-35.96 -62.23,-81.46 -68.47,-136.49 -4.39,-33.76 -6.58,-86.91 -6.58,-159.45 0,-71.92 2.19,-125.08 6.58,-159.47 6.24,-55.04 29.07,-100.38 68.47,-136.02 39.39,-35.65 86.3,-53.46 140.7,-53.46 54.41,0 101.3,17.81 140.7,53.46 39.4,35.64 62.54,80.98 69.42,136.02 3.76,34.39 5.63,87.55 5.63,159.47zm-67.54 0c0,-71.92 -2.19,-125.08 -6.57,-159.47 -4.37,-36.89 -19.86,-67.39 -46.43,-91.46 -26.58,-24.08 -58.32,-36.11 -95.21,-36.11 -36.89,0 -68.64,12.03 -95.21,36.11 -26.58,24.07 -42.06,54.57 -46.44,91.46 -3.75,34.39 -5.62,87.55 -5.62,159.47 0,72.54 1.87,125.69 5.62,159.45 4.38,37.53 19.86,68.33 46.44,92.4 26.57,24.08 58.32,36.12 95.21,36.12 36.89,0 68.63,-12.04 95.21,-36.12 26.57,-24.07 42.06,-54.87 46.43,-92.4 4.38,-33.76 6.57,-86.91 6.57,-159.45zm1255.53 312.35l-131.33 39.4 -40.32 -136.02 -181.99 0 -40.33 136.02 -131.32 -39.4 207.3 -651.92 110.69 0 207.3 651.92zm-206.37 -213.86l-45.96 -155.72c-6.25,-21.27 -9.38,-43.47 -9.38,-66.59l-1.87 0c0,23.12 -3.13,45.32 -9.39,66.59l-45.96 155.72 112.56 0zm1037.71 153.83c-31.27,55.66 -80.67,87.55 -148.21,95.68 31.9,12.5 48.47,34.39 49.72,65.66 0.62,11.88 0.94,21.89 0.94,30.02 0,8.13 -0.32,17.5 -0.94,28.14 -0.62,24.39 -11.88,43.46 -33.78,57.22 -18.75,11.87 -41.57,17.81 -68.46,17.81 -15.64,0 -31.27,-4.37 -46.91,-13.13 -15.63,-8.75 -26.26,-19.07 -31.89,-30.95l-7.51 -16.88 58.17 -30.02 1.87 1.88c11.88,14.38 22.51,21.58 31.89,21.58 10.01,0 15.01,-12.2 15.01,-36.59 0,-23.77 -5.32,-35.65 -15.94,-35.65l-45.96 0 0 -65.66c-45.04,-12.5 -82.4,-35.79 -112.11,-69.88 -29.7,-34.08 -47.68,-74.57 -53.92,-121.48 -3.76,-28.76 -5.64,-78.79 -5.64,-150.07 0,-70.67 1.88,-120.39 5.64,-149.15 7.49,-58.17 32.66,-106 75.5,-143.52 42.83,-37.53 95.53,-56.28 158.05,-56.28 65.67,0 118.51,25.94 158.53,77.85l-81.6 71.29c-24.4,-20.64 -50.03,-30.95 -76.93,-30.95 -26.88,0 -49.08,8.13 -66.59,24.38 -17.51,16.26 -28.15,37.84 -31.9,64.73 -3.75,28.77 -5.62,75.98 -5.62,141.65 0,66.28 1.87,113.33 5.62,141.17 3.75,27.82 14.39,49.87 31.9,66.13 17.51,16.26 39.71,24.38 66.59,24.38 38.78,0 66.3,-12.2 82.56,-36.58l1.87 -2.81 90.05 60.03zm924.2 60.03l-131.33 39.4 -40.33 -136.02 -181.98 0 -40.33 136.02 -131.32 -39.4 207.3 -651.92 110.69 0 207.3 651.92zm-206.37 -213.86l-45.97 -155.72c-6.24,-21.27 -9.37,-43.47 -9.37,-66.59l-1.87 0c0,23.12 -3.13,45.32 -9.39,66.59l-45.96 155.72 112.56 0zm812.59 -551.57c-11.89,16.89 -45.97,47.84 -102.25,92.87l-60.97 -45.03c12.5,-33.14 31.27,-75.04 56.28,-125.69 11.26,-15.64 27.2,-23.45 47.84,-23.45 15,0 28.77,4.68 41.27,14.07 18.76,13.75 28.14,31.58 28.14,53.47 0,12.51 -3.44,23.76 -10.31,33.76zm-34.71 793.57l-135.08 0 0 -680.06 135.08 0 0 680.06z"/>
  <g id="_2325546035872">
   <path class="fil0" d="M8411.36 2943.41l-222.58 1230.87 445.73 0 -223.15 -1230.87zm-253.38 1401.14l-91.83 510.82 -172.02 0 430.63 -2383.85 173.77 0 430.63 2383.85 -172.02 0 -91.83 -510.82 -507.33 0zm1207.41 -1534.22l0 2045.04 -170.28 0 0 -2383.85 170.28 0 340.55 584.05 340.55 -584.05 170.26 0 0 2383.85 -170.26 0 0 -2045.04 -340.55 584.05 -340.55 -584.05zm1634.55 133.08l-222.58 1230.87 445.73 0 -223.15 -1230.87zm-253.38 1401.14l-91.82 510.82 -172.03 0 430.64 -2383.85 173.76 0 430.63 2383.85 -172.02 0 -91.83 -510.82 -507.33 0zm1735.08 -1702.76l-697.95 0 0 -170.27 939.71 0 -786.28 2213.57 697.95 0 0 170.28 -939.72 0 786.29 -2213.58zm681.48 1788.18c0,170.28 84.85,255.12 255.13,255.12 170.26,0 255.69,-84.84 255.69,-255.12l0 -1532.47c0,-170.27 -85.43,-255.71 -255.69,-255.71 -170.28,0 -255.13,85.44 -255.13,255.71l0 1532.47zm-170.28 -1532.47c0,-283.6 141.8,-425.98 425.41,-425.98 284.17,0 425.97,142.38 425.97,425.98l0 1532.47c0,283.61 -141.8,425.4 -425.97,425.4 -283.61,0 -425.41,-141.79 -425.41,-425.4l0 -1532.47zm1379.44 -87.17l0 2045.04 -170.29 0 0 -2383.85 170.29 0 510.81 876.95 0 -876.95 170.28 0 0 2383.85 -170.28 0 0 -1168.09 -510.81 -876.95z"/>
   <path class="fil1" d="M15581.43 4685.09l510.81 0 0 170.28 -681.09 0 0 -2383.85 170.28 0 0 2213.57zm1294 -1741.68l-222.58 1230.87 445.73 0 -223.15 -1230.87zm-253.38 1401.14l-91.82 510.82 -172.03 0 430.64 -2383.85 173.76 0 430.63 2383.85 -172.02 0 -91.83 -510.82 -507.33 0zm1888.51 85.42c0,283.61 -141.8,425.4 -425.98,425.4l-425.4 0 0 -2383.85 425.4 0c284.18,0 425.98,142.38 425.98,425.98 0,156.32 -43,270.23 -129.6,340.55 86.6,70.32 129.6,183.65 129.6,340.54l0 851.38zm-681.1 255.12l255.12 0c170.27,0 255.7,-84.84 255.7,-255.12l0 -851.38c0,-170.26 -85.43,-255.69 -255.7,-255.69l-255.12 0 0 1362.19zm0 -2043.3l0 510.83 255.12 0c170.27,0 255.7,-84.84 255.7,-255.12 0,-170.27 -85.43,-255.71 -255.7,-255.71l-255.12 0zm1038.87 510.83c0,-453.87 227.23,-681.1 681.1,-681.1l0 170.27c-340.55,0 -510.82,170.28 -510.82,510.83 0,113.91 84.84,269.65 255.13,468.4 170.26,198.75 255.69,382.98 255.69,553.26 0,453.87 -227.22,681.09 -681.1,681.09l0 -170.28c340.55,0 510.83,-170.26 510.83,-510.81 0,-113.33 -85.42,-269.65 -255.71,-468.4 -170.28,-198.18 -255.12,-382.98 -255.12,-553.26z"/>
  </g>
  <path class="fil0" d="M8707.03 1505.39c0,55.57 -18.31,101.98 -54.92,139.24 -36.62,37.27 -82.7,58.19 -138.26,62.77 -37.93,3.27 -74.86,4.57 -110.81,3.92l0 303.99 -70.61 0 0 -708.99c6.54,-1.29 12.09,-1.95 16.67,-1.95 71.25,-1.96 126.17,-1.3 164.75,1.95 54.9,4.58 100.83,25.35 137.77,62.28 36.93,36.93 55.41,82.54 55.41,136.79zm-71.59 1.96c0,-41.18 -11.45,-73.87 -34.32,-98.06 -21.58,-22.22 -50.01,-34.97 -85.32,-38.24 -35.3,-3.27 -72.89,-3.93 -112.76,-1.96l0 278.5c53.6,0 91.19,-0.98 112.76,-2.96 35.31,-3.27 64.07,-16.66 86.3,-40.2 22.22,-23.53 33.34,-55.9 33.34,-97.08zm969.33 486.38l-60.79 29.43 -153.96 -315.76c-39.22,3.27 -75.51,4.57 -108.84,3.92l0 303.99 -70.6 0 0 -708.99c6.54,-1.29 12.08,-1.95 16.66,-1.95 71.26,-1.96 126.18,-1.3 164.75,1.95 54.91,4.58 100.83,25.35 137.78,62.28 36.93,36.93 55.4,82.54 55.4,136.79 0,43.14 -11.62,81.4 -34.82,114.73 -23.2,33.34 -54.09,57.53 -92.67,72.56l147.09 301.05zm-91.19 -486.38c0,-41.18 -11.45,-73.87 -34.32,-98.06 -21.58,-22.22 -50.01,-34.97 -85.31,-38.24 -35.3,-3.27 -72.9,-3.93 -112.77,-1.96l0 278.5c53.6,0 91.19,-0.98 112.77,-2.96 35.3,-3.27 64.07,-16.66 86.29,-40.2 22.23,-23.53 33.34,-55.9 33.34,-97.08zm889.9 -261.82l-27.45 18.63 -77.46 -91.2 -77.48 91.2 -27.45 -18.63 65.71 -129.43c1.29,-2.62 2.93,-5.23 4.89,-7.85l67.67 0c1.96,2.62 3.59,5.23 4.9,7.85l66.67 129.43zm58.84 769.78l-334.38 0 0 -710.94 324.57 0 0 63.74 -253.96 0 0 249.07 234.36 0 0 63.74 -234.36 0 0 270.65 263.77 0 0 63.74zm992.88 0l-70.6 0 3.92 -475.59c3.27,-32.04 7.51,-76.17 12.74,-132.38l-0.98 0c-10.45,57.52 -22.55,102.95 -36.28,136.3l-114.72 283.39 -50.01 0 -114.74 -283.39c-13.73,-33.35 -25.83,-78.78 -36.28,-136.3l-0.98 0c3.92,28.76 8.16,72.88 12.74,132.38l5.89 475.59 -70.6 0 0 -710.94 62.76 0 148.06 385.38c5.89,15.68 12.1,39.55 18.64,71.58l0.98 0c0.65,-15.04 6.21,-38.9 16.67,-71.58l150.02 -385.38 62.77 0 0 710.94zm623.19 0l-70.6 0 0 -710.94 70.6 0 0 710.94zm988.95 -355.96c0,75.84 -1.96,131.39 -5.89,166.7 -7.19,57.52 -31.37,105.09 -72.56,142.68 -41.18,37.58 -90.21,56.39 -147.09,56.39 -56.88,0 -105.91,-18.81 -147.09,-56.39 -41.18,-37.59 -65.05,-85.16 -71.59,-142.68 -4.58,-35.31 -6.87,-90.86 -6.87,-166.7 0,-75.18 2.29,-130.75 6.87,-166.7 6.54,-57.53 30.41,-104.93 71.59,-142.19 41.18,-37.27 90.21,-55.9 147.09,-55.9 56.88,0 105.91,18.63 147.09,55.9 41.19,37.26 65.37,84.66 72.56,142.19 3.93,35.95 5.89,91.52 5.89,166.7zm-70.6 0c0,-75.18 -2.29,-130.75 -6.87,-166.7 -4.57,-38.58 -20.75,-70.44 -48.54,-95.62 -27.78,-25.16 -60.96,-37.75 -99.53,-37.75 -38.57,0 -71.75,12.59 -99.54,37.75 -27.78,25.18 -43.95,57.04 -48.53,95.62 -3.92,35.95 -5.89,91.52 -5.89,166.7 0,75.84 1.97,131.39 5.89,166.7 4.58,39.23 20.75,71.42 48.53,96.59 27.79,25.17 60.97,37.75 99.54,37.75 38.57,0 71.75,-12.58 99.53,-37.75 27.79,-25.17 43.97,-57.36 48.54,-96.59 4.58,-35.31 6.87,-90.86 6.87,-166.7z"/>
  <path class="fil2" d="M4423.05 5290.65c22.14,0 44.09,0.89 65.81,2.53l57.02 -520.23c-147.16,-55.78 -252.03,-200.31 -252.03,-369.77 0,-217.78 173.18,-394.39 386.8,-394.39 213.64,0 386.82,176.61 386.82,394.39 0,73.46 -19.74,142.24 -54.05,201.13l811.15 789.47c70.45,-75.69 170.09,-122.89 280.51,-122.89 213.64,0 386.82,176.61 386.82,394.39 0,217.8 -173.18,394.39 -386.82,394.39 -213.61,0 -386.8,-176.59 -386.8,-394.39 0,-66.75 16.3,-129.62 45.02,-184.75l-814.68 -792.94c-69.51,68.1 -163.96,109.98 -267.97,109.98 -10.7,0 -21.28,-0.48 -31.77,-1.34l-56.05 511.31c401.18,80.59 703.77,441.19 703.77,873.76 0,491.86 -391.11,890.65 -873.55,890.65 -482.42,0 -873.53,-398.79 -873.53,-890.65 0,-240.21 93.33,-458.22 245.03,-618.43l-166.27 -196.55c-107.8,79.29 -240.17,126.03 -383.23,126.03 -64.36,0 -126.53,-9.53 -185.27,-27.12l-247.99 637.21c123.86,65.74 208.44,197.82 208.44,350.02 0,217.8 -173.18,394.39 -386.82,394.39 -213.62,0 -386.8,-176.59 -386.8,-394.39 0,-57.1 11.92,-111.37 33.35,-160.38l-280.94 -172.34c-69.91,70.81 -166.23,114.56 -272.57,114.56 -213.62,0 -386.8,-176.59 -386.8,-394.39 0,-132.52 64.1,-249.79 162.46,-321.3l-84.29 -224c-52.4,14.44 -107.48,22.2 -164.35,22.2 -346.62,0 -627.65,-286.53 -627.65,-639.96 0,-251.09 141.9,-468.45 348.41,-573.21l-44.55 -135.76c-34.15,10.05 -70.23,15.47 -107.55,15.47 -213.61,0 -386.8,-176.59 -386.8,-394.39 0,-217.78 173.19,-394.39 386.8,-394.39 213.64,0 386.83,176.61 386.83,394.39 0,141.56 -73.19,265.7 -183.07,335.27l45.94 139.94c57.5,-17.7 118.48,-27.27 181.64,-27.27 346.66,0 627.68,286.58 627.68,639.95 0,257.74 -149.47,479.87 -364.85,581.28l79.25 210.56c40.87,-14.99 84.96,-23.16 130.9,-23.16 213.63,0 386.82,176.61 386.82,394.38 0,71.15 -18.5,137.91 -50.84,195.54l271.98 166.81c70.94,-88.03 178.55,-144.19 299,-144.19 27.31,0 53.97,2.88 79.69,8.39l248.87 -639.46c-220.47,-107.73 -372.73,-337.41 -372.73,-603.34 0,-369.24 293.63,-668.68 655.81,-668.68 362.22,0 655.86,299.44 655.86,668.68 0,188.96 -76.89,359.58 -200.49,481.19l162.98 192.67c151.57,-129.12 346.71,-206.87 559.65,-206.87zm1685.52 155.23c119.34,0 216.08,98.65 216.08,220.28 0,121.65 -96.74,220.28 -216.08,220.28 -119.29,0 -216.03,-98.63 -216.03,-220.28 0,-121.63 96.74,-220.28 216.03,-220.28zm-1424.43 -1262.1c119.34,0 216.08,98.65 216.08,220.29 0,121.65 -96.74,220.28 -216.08,220.28 -119.3,0 -216.03,-98.63 -216.03,-220.28 0,-121.64 96.73,-220.29 216.03,-220.29zm-3866.11 -824.75c119.34,0 216.08,98.65 216.08,220.28 0,121.65 -96.74,220.28 -216.08,220.28 -119.29,0 -216.03,-98.63 -216.03,-220.28 0,-121.63 96.74,-220.28 216.03,-220.28zm2429.29 1003.03c249.87,0 452.42,206.55 452.42,461.25 0,254.72 -202.55,461.25 -452.42,461.25 -249.82,0 -452.37,-206.53 -452.37,-461.25 0,-254.7 202.55,-461.25 452.37,-461.25zm-610.42 1871c119.34,0 216.08,98.65 216.08,220.28 0,121.66 -96.74,220.29 -216.08,220.29 -119.3,0 -216.03,-98.63 -216.03,-220.29 0,-121.63 96.73,-220.28 216.03,-220.28zm-906.96 -612.54c119.34,0 216.07,98.65 216.07,220.28 0,121.65 -96.73,220.28 -216.07,220.28 -119.3,0 -216.04,-98.63 -216.04,-220.28 0,-121.63 96.74,-220.28 216.04,-220.28zm2698.35 -105.89c362.6,0 656.53,299.74 656.53,669.34 0,369.62 -293.93,669.34 -656.53,669.34 -362.54,0 -656.47,-299.72 -656.47,-669.34 0,-369.6 293.93,-669.34 656.47,-669.34zm-3172.43 -1301.56c251.11,0 454.67,207.58 454.67,463.57 0,255.98 -203.56,463.54 -454.67,463.54 -251.08,0 -454.65,-207.56 -454.65,-463.54 0,-255.99 203.57,-463.57 454.65,-463.57zm5648.79 12.58c107.92,214.98 21.11,476.85 -193.83,584.81 -214.98,107.92 -476.85,21.11 -584.82,-193.83 -107.92,-214.98 -21.11,-476.85 193.83,-584.82 214.99,-107.92 476.85,-21.1 584.82,193.84zm-803.94 -977.38c38.79,77.25 7.59,171.36 -69.66,210.15 -77.24,38.79 -171.35,7.59 -210.14,-69.66 -38.79,-77.25 -7.59,-171.35 69.65,-210.15 77.25,-38.79 171.36,-7.59 210.15,69.66zm933.16 -259.16c57.5,114.55 11.25,254.07 -103.28,311.6 -114.54,57.5 -254.06,11.25 -311.59,-103.28 -57.5,-114.54 -11.25,-254.07 103.28,-311.59 114.54,-57.51 254.06,-11.25 311.59,103.27zm-2094.69 -463.98c237.52,0 430.13,192.61 430.13,430.13 0,237.48 -192.61,430.09 -430.13,430.09 -237.48,0 -430.1,-192.61 -430.1,-430.09 0,-237.52 192.62,-430.13 430.1,-430.13zm-637.36 -1038.37c163.43,0 295.91,132.48 295.91,295.91 0,163.39 -132.48,295.89 -295.91,295.89 -163.39,0 -295.89,-132.5 -295.89,-295.89 0,-163.43 132.5,-295.91 295.89,-295.91zm-1855.05 1041.76c363.19,0 657.65,300.24 657.65,670.47 0,370.25 -294.46,670.47 -657.65,670.47 -363.13,0 -657.56,-300.22 -657.56,-670.47 0,-370.23 294.43,-670.47 657.56,-670.47zm-1329.08 -443.21c119.33,0 216.07,98.65 216.07,220.28 0,121.65 -96.74,220.28 -216.07,220.28 -119.3,0 -216.04,-98.63 -216.04,-220.28 0,-121.63 96.74,-220.28 216.04,-220.28zm1062.1 -1097.33c249.87,0 452.42,206.55 452.42,461.25 0,254.72 -202.55,461.25 -452.42,461.25 -249.82,0 -452.38,-206.53 -452.38,-461.25 0,-254.7 202.56,-461.25 452.38,-461.25zm1165.62 -523.19c121.71,0 220.4,100.63 220.4,224.7 0,124.11 -98.69,224.74 -220.4,224.74 -121.72,0 -220.39,-100.63 -220.39,-224.74 0,-124.07 98.67,-224.7 220.39,-224.7zm958.45 874.65c249.27,0 451.39,202.11 451.39,451.39 0,159.33 -82.59,299.4 -207.29,379.71l120.98 217.02c79.31,-36.71 167.63,-57.21 260.75,-57.21 343.34,0 621.74,278.4 621.74,621.74 0,67.99 -10.96,133.42 -31.14,194.67l190.13 67.05c25.06,-56.35 69.03,-104.71 128.42,-134.52 136.41,-68.5 302.57,-13.43 371.07,122.98 68.48,136.39 13.42,302.55 -122.99,371.05 -136.39,68.48 -302.55,13.41 -371.03,-122.98 -27.46,-54.66 -35.05,-114.12 -25.53,-170.15l-198.75 -61.73c-99.78,210.08 -313.9,355.36 -561.92,355.36 -343.34,0 -621.73,-278.39 -621.73,-621.73 0,-222.95 117.4,-418.49 293.72,-528.22l-114.27 -220.57c-56.08,25 -118.18,38.92 -183.55,38.92 -241.41,0 -438.59,-189.59 -450.78,-427.97l-768.95 781.06c147.84,159.54 238.55,374.78 238.55,611.54 0,491.86 -391.11,890.65 -873.56,890.65 -482.42,0 -873.53,-398.79 -873.53,-890.65 0,-151.46 37.13,-294.08 102.58,-418.97l-258.96 -220.47c-70.96,86.9 -177.85,142.22 -297.42,142.22 -213.62,0 -386.8,-176.59 -386.8,-394.39 0,-217.78 173.18,-394.39 386.8,-394.39 72.41,0 140.17,20.31 198.12,55.61l271.81 -231.38c-40.01,-86.46 -62.43,-183.03 -62.43,-284.96 0,-369.24 293.64,-668.68 655.82,-668.68 185.02,0 352.11,78.15 471.34,203.8l334.22 -164.61c-14.51,-41.08 -22.39,-85.34 -22.39,-131.51 0,-214.63 170.68,-388.67 381.18,-388.67 195.81,0 357.12,150.54 378.73,344.26l653.5 0 -1.47 105.06 -654.15 0c-28.58,185.85 -186.31,328.02 -376.61,328.02 -128.27,0 -241.76,-64.63 -310.85,-163.68l-314.58 154.91c73.71,108.13 116.94,239.46 116.94,381.1 0,369.29 -293.64,668.69 -655.86,668.69 -224.51,0 -422.69,-115.05 -540.89,-290.51l-241.64 205.71c65.7,70.69 106.03,166.16 106.03,271.23 0,57.56 -12.09,112.25 -33.85,161.55l258.33 219.91c157.94,-230.04 419.75,-380.5 716.03,-380.5 212.63,0 407.47,77.5 558.96,206.26l860.68 -852.13c52.71,-190.78 227.56,-330.89 435.1,-330.89zm2402.58 1376.33l-209.07 -419.35 93.98 -46.87 223.79 448.89 5.22 -0.06c213.64,0 386.82,176.61 386.82,394.39 0,217.8 -173.18,394.39 -386.82,394.39 -17.89,0 -35.49,-1.26 -52.73,-3.66l-53.2 331.82c244.38,87.55 419.58,324.86 419.58,603.86 0,353.44 -281.02,639.97 -627.68,639.97 -346.62,0 -627.65,-286.53 -627.65,-639.97 0,-353.37 281.03,-639.94 627.65,-639.94 36.16,0 71.59,3.15 106.05,9.15l53.57 -333.95c-136.79,-60.78 -232.39,-199.84 -232.39,-361.67 0,-177.37 114.86,-327.43 272.88,-377z"/>
  <path class="fil3" d="M6685.72 1670.07c812.07,216.22 1563.1,-722.45 1298.24,-1484.71 -804.49,-253.96 -1645.22,691.66 -1298.24,1484.71zm-1665.53 -663.3l1014.02 840.37c-49.81,72.38 -75.3,161.58 -66.19,255.29 20.76,213.39 213.12,369.3 429.67,348.24 216.53,-21.06 375.24,-211.13 354.48,-424.52 -20.76,-213.38 -213.12,-369.31 -429.66,-348.24 -67.92,6.61 -130.14,29.85 -182.93,65.21l-1040.35 -859.96c21.93,-55.09 31.4,-115.94 25.29,-178.81 -20.76,-213.38 -213.12,-369.31 -429.66,-348.24 -216.54,21.06 -375.25,211.14 -354.49,424.52 20.76,213.39 213.12,369.3 429.66,348.24 99.56,-9.69 186.87,-55.11 250.16,-122.1zm1317.06 822.61c131.65,-12.81 248.6,81.99 261.22,211.73 12.62,129.73 -83.87,245.29 -215.52,258.1 -131.66,12.81 -248.61,-81.99 -261.23,-211.73 -12.62,-129.73 83.87,-245.3 215.53,-258.1zm-1627.65 -1321.8c131.65,-12.81 248.6,81.99 261.22,211.72 12.62,129.74 -83.87,245.3 -215.52,258.11 -131.66,12.8 -248.61,-81.99 -261.23,-211.73 -12.62,-129.74 83.87,-245.3 215.53,-258.1zm2051.75 965.58c-199.64,-640.29 569.76,-1361.92 1115.98,-1193.19 136.9,638.78 -367.83,1283.09 -996.81,1281.64l701.94 -831.55c110.79,-134.4 33.6,-252.69 -104.03,-90.09l-717.08 833.19z"/>
 </g>
</svg>
